<svg width="39" height="63" viewBox="0 0 39 63" fill="none" xmlns="http://www.w3.org/2000/svg">
<path d="M5.85 3.9C5.85 1.74647 7.59647 0 9.75 0C11.9035 0 13.65 1.74647 13.65 3.9V7.8H17.55V3.9C17.55 1.74647 19.2928 0 21.45 0C23.6072 0 25.35 1.74647 25.35 3.9V7.8C25.35 7.98769 25.3378 8.17294 25.3134 8.35331C30.9684 10.0193 35.1 15.2466 35.1 21.45C35.1 24.3994 34.1616 27.1294 32.5772 29.3597C36.4284 31.7728 39 36.0628 39 40.95C39 48.4941 32.8941 54.6 25.35 54.6V58.5C25.35 60.6572 23.6072 62.4 21.45 62.4C19.2928 62.4 17.55 60.6572 17.55 58.5V54.6H13.65V58.5C13.65 60.6572 11.9035 62.4 9.75 62.4C7.59647 62.4 5.85 60.6572 5.85 58.5V54.6H5.08706C2.27784 54.6 0 52.3209 0 49.5178V12.3825C0 9.84994 2.04994 7.8 4.57884 7.8H5.85V3.9ZM21.45 27.3C24.6797 27.3 27.3 24.6797 27.3 21.45C27.3 18.2203 24.6797 15.6 21.45 15.6H7.8V27.3H21.45ZM7.8 35.1V46.8H25.35C28.5797 46.8 31.2 44.1797 31.2 40.95C31.2 37.7203 28.5797 35.1 25.35 35.1H7.8Z" fill="#C9FA49"/>
</svg>
