<svg width="39" height="90" viewBox="0 0 39 90" fill="none" xmlns="http://www.w3.org/2000/svg">
<path d="M19.5 0C22.5817 0 25.0714 2.4949 25.0714 5.57138V8.74361C27.2478 9.14406 29.3719 9.84919 31.3741 10.8468L33.1326 11.7313C35.8835 13.1067 36.9978 16.4531 35.6223 19.204C34.2469 21.9549 30.904 23.0691 28.1531 21.6937L26.3772 20.8058C24.6536 19.9526 22.7558 19.4999 20.8232 19.4999H20.5272C15.3388 19.4999 11.1429 23.6959 11.1429 28.8843C11.1429 32.7147 13.4759 36.162 17.0451 37.5897L26.0987 41.2111C33.8987 44.3276 39 51.8665 39 60.2584V60.8504C39 69.7647 33.15 77.3209 25.0714 79.8629V83.5714C25.0714 86.6531 22.5817 89.1428 19.5 89.1428C16.4183 89.1428 13.9286 86.6531 13.9286 83.5714V80.1937C11.1603 79.5843 8.80982 78.5049 6.56384 77.0075L2.47232 74.2741C-0.0870514 72.5678 -0.766073 68.9638 0.940178 66.5437C2.64643 63.9843 6.09375 63.3053 8.67053 65.0116L12.7446 67.7276C14.6076 68.9812 16.8188 69.6428 19.0647 69.6428C23.9223 69.6428 27.8571 65.708 27.8571 60.8504V60.2584C27.8571 56.4281 25.5241 52.9808 21.9549 51.5531L12.9013 47.9316C5.10134 44.8151 0 37.2763 0 28.8843C0 19.8482 5.83259 12.1857 13.9286 9.4383V5.57138C13.9286 2.4949 16.4183 0 19.5 0Z" fill="#C9FA49"/>
</svg>
