<svg width="39" height="55" viewBox="0 0 39 55" fill="none" xmlns="http://www.w3.org/2000/svg">
<path d="M3.9 25.35C1.74647 25.35 0 23.6072 0 21.45C0 19.2928 1.74647 17.55 3.9 17.55H7.34784C10.9566 7.32591 20.6091 0 32.175 0H35.1C37.2572 0 39 1.74647 39 3.9C39 6.05353 37.2572 7.8 35.1 7.8H32.175C25.1184 7.8 18.9881 11.7487 15.8559 17.55H31.2C33.3572 17.55 35.1 19.2928 35.1 21.45C35.1 23.6072 33.3572 25.35 31.2 25.35H13.6744C13.6622 25.6669 13.65 25.9959 13.65 26.325V28.275C13.65 28.6041 13.6622 28.9331 13.6744 29.25H31.2C33.3572 29.25 35.1 30.9928 35.1 33.15C35.1 35.3072 33.3572 37.05 31.2 37.05H15.8559C18.9881 42.8512 25.1184 46.8 32.175 46.8H35.1C37.2572 46.8 39 48.5428 39 50.7C39 52.8572 37.2572 54.6 35.1 54.6H32.175C20.6091 54.6 10.9566 47.2753 7.34784 37.05H3.9C1.74647 37.05 0 35.3072 0 33.15C0 30.9928 1.74647 29.25 3.9 29.25H5.86828C5.85609 28.9209 5.85 28.6041 5.85 28.275V26.325C5.85 25.9959 5.85609 25.6791 5.86828 25.35H3.9Z" fill="#C9FA49"/>
</svg>
