<svg width="1327" height="1411" viewBox="0 0 1327 1411" fill="none" xmlns="http://www.w3.org/2000/svg">
<g clip-path="url(#clip0_199_433)">
<path d="M663 295.8C803.446 295.8 917.3 229.583 917.3 147.9C917.3 66.2171 803.446 0 663 0C522.554 0 408.7 66.2171 408.7 147.9C408.7 229.583 522.554 295.8 663 295.8Z" fill="white"/>
<path d="M663 1410.2C803.446 1410.2 917.3 1343.98 917.3 1262.3C917.3 1180.62 803.446 1114.4 663 1114.4C522.554 1114.4 408.7 1180.62 408.7 1262.3C408.7 1343.98 522.554 1410.2 663 1410.2Z" fill="white"/>
<path d="M308.616 500.529C378.839 378.902 378.383 247.174 307.598 206.305C236.813 165.436 122.503 230.902 52.2799 352.529C-17.9431 474.155 -17.4874 605.883 53.2979 646.752C124.083 687.622 238.393 622.155 308.616 500.529Z" fill="white"/>
<path d="M1273.61 1057.66C1343.83 936.036 1343.42 804.33 1272.68 763.488C1201.94 722.647 1087.67 788.136 1017.45 909.762C947.225 1031.39 947.642 1163.09 1018.38 1203.94C1089.12 1244.78 1203.39 1179.29 1273.61 1057.66Z" fill="white"/>
<path d="M307.633 1203.9C378.418 1163.03 378.874 1031.3 308.651 909.678C238.428 788.052 124.118 722.585 53.333 763.454C-17.4522 804.323 -17.908 936.052 52.315 1057.68C122.538 1179.3 236.848 1244.77 307.633 1203.9Z" fill="white"/>
<path d="M1272.74 646.785C1343.48 605.943 1343.89 474.237 1273.67 352.611C1203.45 230.985 1089.18 165.496 1018.44 206.337C947.701 247.179 947.284 378.885 1017.51 500.511C1087.73 622.137 1202 687.626 1272.74 646.785Z" fill="white"/>
</g>
<defs>
<clipPath id="clip0_199_433">
<rect width="1326.1" height="1410.3" fill="white"/>
</clipPath>
</defs>
</svg>
